<svg width="23" height="31" viewBox="0 0 23 31" fill="none" xmlns="http://www.w3.org/2000/svg">
<path d="M11.2495 7.11564C10.4307 7.11564 9.63027 7.35844 8.94945 7.81335C8.26864 8.26825 7.73801 8.91483 7.42466 9.67131C7.11132 10.4278 7.02933 11.2602 7.18907 12.0633C7.34882 12.8664 7.74311 13.604 8.32209 14.183C8.90108 14.762 9.63875 15.1563 10.4418 15.316C11.2449 15.4758 12.0773 15.3938 12.8338 15.0804C13.5903 14.7671 14.2369 14.2365 14.6918 13.5557C15.1467 12.8748 15.3895 12.0744 15.3895 11.2556C15.3882 10.158 14.9516 9.10571 14.1755 8.32959C13.3994 7.55346 12.3471 7.11689 11.2495 7.11564ZM11.2495 13.3256C10.8401 13.3256 10.4399 13.2042 10.0995 12.9767C9.75907 12.7493 9.49375 12.426 9.33708 12.0478C9.18041 11.6695 9.13941 11.2533 9.21928 10.8518C9.29916 10.4502 9.4963 10.0814 9.7858 9.79191C10.0753 9.50241 10.4441 9.30527 10.8457 9.22539C11.2472 9.14552 11.6634 9.18652 12.0416 9.34319C12.4199 9.49986 12.7432 9.76518 12.9706 10.1056C13.1981 10.446 13.3195 10.8462 13.3195 11.2556C13.3188 11.8044 13.1006 12.3305 12.7125 12.7186C12.3244 13.1067 11.7983 13.325 11.2495 13.3256Z" fill="#1A2028"/>
<path d="M19.2048 3.2942C17.2379 1.32774 14.6122 0.159582 11.8346 0.0151831C9.05703 -0.129216 6.3244 0.76038 4.16414 2.51228C2.00387 4.26417 0.569117 6.75418 0.13678 9.50172C-0.295556 12.2493 0.305174 15.0596 1.82303 17.3902L9.64415 29.397C9.8182 29.6641 10.0562 29.8837 10.3365 30.0356C10.6168 30.1876 10.9307 30.2671 11.2495 30.2671C11.5684 30.2671 11.8822 30.1876 12.1625 30.0356C12.4429 29.8837 12.6808 29.6641 12.8549 29.397L20.6763 17.3902C22.0847 15.2282 22.7071 12.6477 22.4392 10.0814C22.1713 7.51503 21.0294 5.11875 19.2048 3.2942ZM18.9419 16.2603L11.2496 28.0689L3.55716 16.2603C1.20255 12.6457 1.70756 7.80838 4.75795 4.75787C5.61043 3.90537 6.62248 3.22912 7.73631 2.76775C8.85014 2.30637 10.0439 2.06891 11.2496 2.06891C12.4552 2.06891 13.649 2.30637 14.7628 2.76775C15.8766 3.22912 16.8887 3.90537 17.7412 4.75787C20.7915 7.80838 21.2965 12.6457 18.9419 16.2603Z" fill="#1A2028"/>
</svg>
