<svg width="24" height="24" viewBox="0 0 24 24" fill="none" xmlns="http://www.w3.org/2000/svg">
<path d="M5.12605 0C4.65432 0 4.18891 0.16957 3.80106 0.478944L3.74514 0.506905L3.71718 0.535768L0.898535 3.4392L0.926496 3.46626C0.512921 3.84179 0.219889 4.33145 0.0844004 4.87341C-0.0510884 5.41536 -0.0229591 5.98531 0.165237 6.51129C0.168845 6.51851 0.161629 6.53204 0.165237 6.53925C0.930104 8.72742 2.88557 12.9522 6.70449 16.7712C10.5378 20.6045 14.8186 22.4824 16.9364 23.3104H16.9644C17.4951 23.4858 18.0622 23.5209 18.6105 23.4122C19.1588 23.3034 19.6697 23.0546 20.0933 22.6899L22.9399 19.8433C23.6867 19.0964 23.6867 17.7994 22.9399 17.0526L19.2761 13.3888L19.2472 13.332C18.5004 12.5851 17.1763 12.5851 16.4286 13.332L14.6247 15.1359C13.2709 14.4855 12.0256 13.63 10.9329 12.5996C9.45639 11.1898 8.70235 9.56896 8.42454 8.93488L10.2285 7.13094C10.9861 6.37329 10.9997 5.11234 10.1996 4.36912L10.2276 4.34026L10.1437 4.25638L6.53582 0.535768L6.50786 0.507807L6.45104 0.478944C6.07669 0.17327 5.60933 0.00433235 5.12605 0ZM5.12605 1.80393C5.19978 1.80822 5.26968 1.83822 5.32358 1.88872L8.93145 5.58046L9.01623 5.66525C9.00901 5.65803 9.06854 5.75364 8.95941 5.86278L6.70449 8.11769L6.28147 8.51276L6.4799 9.07558C6.4799 9.07558 7.51536 11.8491 9.6927 13.9246L9.89023 14.0932C11.9855 16.0063 14.456 17.0526 14.456 17.0526L15.0197 17.3069L17.6977 14.6281C17.8528 14.4739 17.8239 14.4739 17.9791 14.6281L21.6717 18.3225C21.8269 18.4768 21.8269 18.4209 21.6717 18.5751L18.909 21.3378C18.4941 21.6941 18.053 21.768 17.529 21.5922C15.4851 20.7885 11.5138 19.0441 7.97266 15.5039C4.40358 11.9339 2.54011 7.88589 1.85733 5.92051C1.71932 5.55341 1.81764 5.01132 2.13874 4.73622L2.19466 4.6794L4.92942 1.88962C4.98272 1.83918 5.05283 1.80888 5.12605 1.80393Z" fill="black"/>
</svg>
